<?xml version="1.0" encoding="utf-8"?>
<!-- Generator: Adobe Illustrator 26.1.0, SVG Export Plug-In . SVG Version: 6.00 Build 0)  -->
<svg version="1.1" id="Modo_de_aislamiento" xmlns="http://www.w3.org/2000/svg" xmlns:xlink="http://www.w3.org/1999/xlink"
	 x="0px" y="0px" viewBox="0 0 370.71 247.85" style="enable-background:new 0 0 370.71 247.85;" xml:space="preserve">
<style type="text/css">
	.st0{fill:#FFFFFF;}
</style>
<g>
	<polygon class="st0" points="128.86,61 128.86,72.57 140.63,87.45 140.63,73.62 174.53,73.62 174.53,127.34 181.6,136.11 
		188.99,126.92 188.99,73.81 222.47,73.81 222.47,87.45 236,71.75 236,61 	"/>
	<polygon class="st0" points="60.06,160.97 45.59,160.97 45.59,164.56 60.06,164.56 60.06,185.26 64.75,185.26 64.75,164.56 
		78.98,164.56 78.98,160.97 64.75,160.97 	"/>
	<polygon class="st0" points="200.22,160.97 185.75,160.97 185.75,164.56 200.22,164.56 200.22,185.26 204.9,185.26 204.9,164.56 
		219.14,164.56 219.14,160.97 204.9,160.97 	"/>
	<polygon class="st0" points="96.62,160.42 96.62,164.56 96.62,171.5 96.62,174.7 96.62,181.64 96.62,185.22 96.62,185.26 
		122.52,185.26 122.52,181.64 100.84,181.64 100.84,174.7 121.78,174.7 121.78,171.5 100.84,171.5 100.84,164.56 122.52,164.56 
		122.52,160.42 100.84,160.42 	"/>
	<path class="st0" d="M149.93,164.56h18.6v-4.13h-16.67h-2.73c-4.37,0-7.99,3.23-8.61,7.43l-0.09-0.02v1.29v2.09v3.65v2.09v1.29
		l0.09-0.02c0.62,4.2,4.23,7.43,8.61,7.43h2.73h16.67v-4.13h-18.6c-2.92,0-5.28-2.36-5.28-5.28v-6.4
		C144.65,166.92,147.02,164.56,149.93,164.56z"/>
	<polygon class="st0" points="312.18,160.42 312.18,180.15 290.66,160.42 286.44,160.42 286.44,185.22 290.66,185.22 290.66,166 
		312.18,185.22 316.41,185.22 316.41,160.42 	"/>
	<path class="st0" d="M257.58,160.42h-10.7c-5.07,0-9.18,4.11-9.18,9.18v6.43c0,5.07,4.11,9.18,9.18,9.18h10.7
		c5.07,0,9.18-4.11,9.18-9.18v-6.43C266.76,164.54,262.65,160.42,257.58,160.42z M261.94,175.42c0,3.23-2.62,5.86-5.86,5.86h-8.2
		c-3.23,0-5.86-2.62-5.86-5.86v-5.1c0-3.23,2.62-5.86,5.86-5.86h8.2c3.23,0,5.86,2.62,5.86,5.86V175.42z"/>
</g>
</svg>
